<svg width="244" height="91" viewBox="0 0 244 91" fill="none" xmlns="http://www.w3.org/2000/svg">
<path d="M111.003 71.2305C108.339 70.0637 106.236 68.4685 104.695 66.4448C103.169 64.4645 102.267 62.0756 102.102 59.5814H113.957C114.016 60.2347 114.216 60.8675 114.543 61.4362C114.87 62.0049 115.316 62.496 115.851 62.8759C117.052 63.7438 118.507 64.1882 119.988 64.1393C121.483 64.1393 122.639 63.8471 123.457 63.2627C123.837 63.0174 124.148 62.6799 124.363 62.2817C124.577 61.8835 124.687 61.4375 124.683 60.9853C124.683 59.8622 124.096 59.0355 122.93 58.4895C121.763 57.9436 119.869 57.3571 117.252 56.7019C114.87 56.1761 112.527 55.485 110.242 54.6336C108.37 53.9087 106.708 52.7294 105.406 51.2019C104.05 49.6399 103.372 47.5258 103.372 44.8595C103.354 42.6741 104.002 40.5349 105.228 38.7261C106.476 36.8792 108.299 35.4234 110.697 34.3585C113.095 33.2936 115.955 32.7581 119.276 32.7518C124.185 32.7518 128.052 33.9675 130.879 36.3988C133.705 38.8301 135.328 42.0538 135.748 46.0699H124.673C124.604 45.4406 124.41 44.8313 124.104 44.2775C123.797 43.7237 123.383 43.2365 122.886 42.8441C121.881 42.0517 120.561 41.6545 118.924 41.6524C117.522 41.6524 116.448 41.9207 115.701 42.4573C115.344 42.7016 115.053 43.032 114.857 43.418C114.661 43.804 114.565 44.2332 114.578 44.666C114.578 45.7891 115.174 46.6304 116.366 47.1899C117.557 47.7494 119.416 48.3099 121.941 48.8714C124.343 49.4643 126.706 50.2019 129.019 51.0802C130.889 51.8354 132.544 53.041 133.836 54.5899C135.215 56.2038 135.928 58.3647 135.976 61.0727C136.005 63.2705 135.329 65.4198 134.048 67.206C132.763 69.0072 130.917 70.4214 128.511 71.4489C126.104 72.4763 123.304 72.9921 120.109 72.9962C116.705 72.9962 113.669 72.4076 111.003 71.2305Z" fill="white"/>
<path d="M150.121 71.2305C147.643 70.205 145.472 68.5565 143.819 66.4448C142.292 64.4649 141.386 62.0763 141.217 59.5814H153.072C153.132 60.2345 153.332 60.867 153.659 61.4356C153.986 62.0041 154.432 62.4954 154.966 62.8759C156.166 63.7484 157.623 64.1973 159.106 64.1518C160.601 64.1518 161.758 63.8596 162.575 63.2752C162.955 63.0299 163.267 62.6924 163.481 62.2942C163.695 61.896 163.805 61.45 163.801 60.9978C163.801 59.8747 163.218 59.048 162.051 58.502C160.884 57.9561 158.987 57.3696 156.373 56.7144C153.99 56.1885 151.647 55.4974 149.36 54.646C147.488 53.9212 145.826 52.7418 144.524 51.2143C143.166 49.6524 142.488 47.5383 142.49 44.872C142.477 42.6849 143.13 40.5457 144.362 38.7386C145.61 36.8917 147.433 35.4358 149.831 34.371C152.229 33.3061 155.082 32.7664 158.391 32.7518C163.3 32.7518 167.167 33.9675 169.994 36.3988C172.82 38.8301 174.444 42.0538 174.867 46.0699H163.785C163.716 45.4406 163.522 44.8313 163.215 44.2775C162.909 43.7237 162.495 43.2365 161.998 42.8441C160.993 42.0517 159.674 41.6545 158.039 41.6524C156.635 41.6524 155.56 41.9207 154.813 42.4573C154.456 42.7018 154.166 43.0323 153.97 43.4183C153.775 43.8043 153.679 44.2334 153.693 44.666C153.693 45.7891 154.289 46.6304 155.481 47.1899C156.672 47.7494 158.53 48.3099 161.052 48.8714C163.455 49.4643 165.82 50.2019 168.134 51.0802C170 51.8372 171.65 53.0427 172.939 54.5899C174.313 56.2038 175.026 58.3647 175.076 61.0727C175.102 63.2687 174.425 65.4157 173.145 67.1998C171.859 69.0009 170.013 70.4152 167.607 71.4426C165.201 72.47 162.41 72.9879 159.234 72.9962C155.821 72.9962 152.783 72.4076 150.121 71.2305Z" fill="white"/>
<path d="M194.424 20.5502V72.4218H182.435V20.5502H194.424Z" fill="white"/>
<path d="M243.073 33.3073L218.536 91.0003H205.64L214.612 71.0902L198.701 33.3073H212.091L221.138 57.7721L230.111 33.3073H243.073Z" fill="white"/>
<path d="M22.774 43.2621H16.3317V72.4221H4.34577V43.2621H0V33.307H4.34577V32.1871C4.34577 27.364 5.72469 23.7045 8.48252 21.2088C11.2404 18.713 15.2825 17.4651 20.6089 17.4651C21.498 17.4651 22.1687 17.49 22.5712 17.5337V27.7009C20.2834 27.5595 18.6715 27.886 17.7356 28.6805C16.7997 29.475 16.3317 30.9007 16.3317 32.9576V33.307H22.774V43.2621Z" fill="white"/>
<path d="M40.3754 20.5502V72.4218H28.3895V20.5502H40.3754Z" fill="white"/>
<path d="M71.7941 33.8373C70.2291 31.7368 69.1232 29.3306 68.5481 26.7751C67.973 24.2195 67.9417 21.5715 68.456 19.0031C69.367 14.6354 71.8441 10.9916 75.2539 9.01994C78.4173 7.18555 82.292 6.83614 86.2821 7.96236C88.3568 4.08142 91.6262 1.31735 95.2544 0.375195C98.8827 -0.566961 102.823 0.281603 106.423 2.73682C111.103 5.92206 114.534 11.4533 115.158 16.8224C116.054 24.3097 111.686 29.9876 109.767 32.0872L106.588 29.1796C107.774 27.8849 111.58 23.2022 110.881 17.3246C110.379 13.1317 107.674 8.79844 103.987 6.28083C101.428 4.5369 98.708 3.91608 96.3276 4.53378C93.9473 5.15149 91.7822 6.98276 90.2754 9.60957C93.8287 11.5781 96.6552 14.6011 97.8095 17.7864C99.307 21.9231 97.3072 25.439 94.6648 26.6464C93.3265 27.2703 91.7292 27.2298 90.1662 26.5621C87.8014 25.5545 85.8641 23.3051 84.8471 20.3913C83.9642 17.8706 83.9299 14.9069 84.688 11.9868C82.7194 11.4908 79.9397 11.263 77.4065 12.7324C75.0543 14.0989 73.3259 16.7038 72.6645 19.8797C72.273 21.8556 72.3012 23.8918 72.7473 25.8562C73.1933 27.8206 74.0474 29.6692 75.2539 31.2823L71.7941 33.8373ZM88.728 13.687C88.3153 15.4402 88.3821 17.2721 88.9214 18.9906C89.639 21.0465 90.9118 22.2132 91.8633 22.6188C92.1745 22.79 92.5391 22.8368 92.8835 22.7498C93.6478 22.4004 94.4277 21.0901 93.7695 19.2713C93.0239 17.1874 91.1271 15.1408 88.728 13.687Z" fill="#60E5A3"/>
<path d="M94.3591 43.9577C93.5598 52.0657 90.8367 59.8659 86.4163 66.7098C85.2565 68.4732 83.8365 70.0509 82.2047 71.3894C79.8586 73.3486 77.0821 72.4657 76.0775 69.5612C75.4879 67.8579 75.1697 66.0609 74.7173 64.3076C74.6054 63.9106 74.4689 63.5209 74.3086 63.1409C74.1532 62.6892 73.8574 62.2991 73.4646 62.0275C73.0717 61.7558 72.6023 61.6169 72.1248 61.6309C71.0829 61.6309 70.3934 62.2767 70.0845 63.1627C69.6384 64.4387 69.4013 65.7833 69.0207 67.0842C68.6869 68.2385 68.4155 69.4396 67.8727 70.494C66.9367 72.2972 64.9557 72.8463 63.112 71.9853C61.2682 71.1242 59.9205 69.58 58.7724 67.9296C54.8697 62.3422 52.4113 56.1184 50.9326 49.5046C50.6206 48.0944 50.4053 46.6563 50.24 45.4333C49.9157 43.155 49.9409 40.8406 50.3149 38.5699C50.736 35.7398 51.9106 33.0751 53.7154 30.8549C56.7976 27.0862 61.4647 26.2221 65.7076 28.6305C66.8868 29.3012 68.0349 30.0812 69.2952 30.5367C72.0562 31.535 74.6674 31.0109 77.2162 29.5695C78.8135 28.6648 80.52 27.7601 82.2764 27.4481C86.5255 26.6713 89.4986 28.8707 91.726 32.2587C94.0627 35.8152 94.7678 39.8053 94.3591 43.9577Z" fill="white"/>
<path d="M88.728 13.6869C88.728 13.6869 89.352 10.692 90.2879 9.61255C90.2879 9.61255 93.4419 11.5031 94.7116 12.985L92.6557 17.2028C92.6557 17.2028 90.11 14.7694 88.728 13.6869Z" fill="url(#paint0_linear_29_278)"/>
<path d="M86.2821 7.95325C86.2821 7.95325 84.7223 10.761 84.6973 11.9902C84.6973 11.9902 79.8742 10.8858 77.6623 12.6141L76.5486 8.37441C76.5486 8.37441 80.0489 6.38715 86.2821 7.95325Z" fill="url(#paint1_linear_29_278)"/>
<path d="M59.9985 47.2585L62.747 44.5225C68.7462 49.9633 76.6952 49.2863 81.7461 44.5568L84.4914 47.1711C79.0444 53.3419 67.4109 54.7115 59.9985 47.2585Z" fill="#60E5A3"/>
<defs>
<linearGradient id="paint0_linear_29_278" x1="88.8746" y1="11.266" x2="93.8693" y2="15.1345" gradientUnits="userSpaceOnUse">
<stop stop-color="#60B5A3"/>
<stop offset="0.19" stop-color="#60C9A3"/>
<stop offset="0.4" stop-color="#60D9A3"/>
<stop offset="0.65" stop-color="#60E2A3"/>
<stop offset="1" stop-color="#60E5A3"/>
</linearGradient>
<linearGradient id="paint1_linear_29_278" x1="85.5677" y1="9.87188" x2="76.6827" y2="10.0247" gradientUnits="userSpaceOnUse">
<stop stop-color="#60B5A3"/>
<stop offset="0.19" stop-color="#60C9A3"/>
<stop offset="0.4" stop-color="#60D9A3"/>
<stop offset="0.65" stop-color="#60E2A3"/>
<stop offset="1" stop-color="#60E5A3"/>
</linearGradient>
</defs>
</svg>
