<svg width="213" height="37" viewBox="0 0 213 37" fill="none" xmlns="http://www.w3.org/2000/svg">
<path d="M43.0626 9.56442V8.06405C43.0626 6.14272 43.6048 4.63971 44.6892 3.55501C45.7736 2.4703 47.4109 1.92531 49.601 1.92003C50.4397 1.91408 51.2781 1.9524 52.1127 2.03484V5.76004H50.4103C48.7358 5.76004 47.8986 6.5518 47.8986 8.1353V9.5565H51.9971V13.2421H47.8986V29.3781H43.0626V13.25H39.9688V9.56442H43.0626ZM54.4331 29.3781V2.03484H59.305V29.3781H54.4331Z" fill="black"/>
<path d="M79.9167 26.999C78.0562 28.8913 75.6069 29.8375 72.5689 29.8375C69.5309 29.8375 67.0817 28.8913 65.2211 26.999C63.3393 25.1252 62.3984 22.618 62.3984 19.4773C62.3984 16.3367 63.3393 13.8295 65.2211 11.9557C67.0817 10.0581 69.5309 9.11065 72.5689 9.11329C75.6069 9.11593 78.0562 10.0502 79.9167 11.9161C81.7772 13.7846 82.7075 16.3064 82.7075 19.4813C82.7048 22.5929 81.7746 25.0988 79.9167 26.999ZM68.7535 24.1922C69.2388 24.7146 69.8279 25.1315 70.4835 25.4167C71.1391 25.7018 71.8472 25.849 72.5629 25.849C73.2787 25.849 73.9867 25.7018 74.6423 25.4167C75.298 25.1315 75.887 24.7146 76.3724 24.1922C77.2867 23.0785 77.7438 21.5108 77.7438 19.4892C77.7438 17.4676 77.2893 15.8933 76.3803 14.7664C75.895 14.244 75.306 13.8271 74.6503 13.542C73.9947 13.2568 73.2867 13.1096 72.5709 13.1096C71.8551 13.1096 71.1471 13.2568 70.4915 13.542C69.8358 13.8271 69.2468 14.244 68.7615 14.7664C67.8445 15.8669 67.386 17.4412 67.386 19.4892C67.386 21.5372 67.8445 23.1049 68.7615 24.1922H68.7535Z" fill="black"/>
<path d="M93.3759 29.9167C87.5578 29.9167 84.5158 27.6378 84.25 23.0799H89.0063C89.1339 24.3071 89.5326 25.1781 90.2024 25.6927C90.8841 26.2034 91.9646 26.4607 93.4317 26.4607C96.0631 26.4607 97.3787 25.669 97.3787 24.0855C97.3924 23.7605 97.321 23.4376 97.1715 23.1483C97.0219 22.8589 96.7994 22.6131 96.5255 22.4346C95.9594 22.0388 94.9308 21.73 93.4716 21.4766L91.1911 21.0807C86.8322 20.3655 84.6527 18.369 84.6527 15.0911C84.6207 14.235 84.8036 13.3845 85.185 12.616C85.5664 11.8476 86.1343 11.1853 86.8375 10.689C88.2834 9.6333 90.3207 9.10547 92.9493 9.10547C98.6479 9.10547 101.588 11.3488 101.768 15.8354H97.1634C97.1116 14.6477 96.7408 13.8204 96.0431 13.3176C95.3454 12.8148 94.3168 12.5694 92.9493 12.5694C90.629 12.5694 89.4688 13.3374 89.4688 14.8734C89.4572 15.1732 89.5206 15.4712 89.6535 15.7407C89.7864 16.0101 89.9846 16.2426 90.2303 16.4173C91.0083 16.8841 91.8787 17.1785 92.7819 17.2803L95.2976 17.6762C97.7216 18.1117 99.4811 18.8031 100.576 19.7506C101.671 20.6981 102.219 22.0177 102.219 23.7094C102.219 25.7099 101.445 27.2459 99.8984 28.3174C98.3515 29.3889 96.1773 29.922 93.3759 29.9167Z" fill="black"/>
<path d="M112.708 29.8103C106.879 29.8103 103.836 27.5313 103.578 22.9735H108.338C108.466 24.2007 108.871 25.0716 109.554 25.5863C110.238 26.1009 111.314 26.3569 112.784 26.3543C115.415 26.3543 116.729 25.5625 116.727 23.979C116.741 23.6544 116.67 23.3318 116.521 23.0425C116.372 22.7532 116.151 22.5071 115.878 22.3282C115.311 21.9323 114.283 21.6235 112.824 21.3702L110.539 20.9743C106.186 20.2591 104.007 18.2625 104.005 14.9847C103.971 14.1303 104.15 13.2809 104.528 12.5126C104.906 11.7443 105.47 11.0811 106.17 10.5825C107.613 9.52686 109.65 8.99902 112.281 8.99902C117.975 8.99902 120.914 11.2423 121.1 15.7289H116.496C116.444 14.5413 116.073 13.7139 115.375 13.2112C114.678 12.7084 113.649 12.4629 112.281 12.4629C109.961 12.4629 108.801 13.2309 108.801 14.767C108.789 15.0698 108.853 15.3709 108.988 15.6427C109.123 15.9145 109.325 16.1483 109.574 16.3227C110.352 16.7895 111.223 17.0839 112.126 17.1858L114.642 17.5816C117.063 18.0171 118.823 18.7086 119.92 19.656C121.018 20.6035 121.565 21.9231 121.563 23.6148C121.563 25.6153 120.789 27.1513 119.242 28.2228C117.696 29.2943 115.517 29.8235 112.708 29.8103Z" fill="black"/>
<path d="M129.536 29.3784H124.664V2.03516H129.536V29.3784Z" fill="black"/>
<path d="M144.577 14.5565L146.204 9.56445H151.307L143.612 30.9893C142.786 33.2405 141.754 34.7897 140.518 35.6369C139.283 36.4841 137.451 36.9196 135.025 36.9433C134.312 36.9439 133.599 36.9016 132.892 36.8166V33.0241H134.746C135.179 33.0658 135.617 33.0133 136.028 32.8703C136.44 32.7273 136.815 32.4972 137.128 32.196C137.441 31.8947 137.684 31.5295 137.84 31.1256C137.997 30.7218 138.063 30.2889 138.035 29.8571C138.035 28.9096 137.725 27.5795 137.106 25.8667L131.297 9.56445H136.556L138.182 14.5169C139.314 18.0481 140.371 21.735 141.352 25.5777C142.136 22.6851 143.211 19.0114 144.577 14.5565Z" fill="black"/>
<path d="M174.587 29.9917C170.464 29.9917 167.142 28.6866 164.62 26.0764C162.097 23.4663 160.833 20.0103 160.828 15.7084C160.828 11.4329 162.092 7.97694 164.62 5.3404C167.147 2.70386 170.47 1.39746 174.587 1.42122C178.714 1.42122 182.037 2.72761 184.554 5.3404C187.071 7.95319 188.323 11.4092 188.31 15.7084C188.31 20.0367 187.059 23.4927 184.558 26.0764C182.057 28.6602 178.733 29.9653 174.587 29.9917ZM166.274 15.7084C166.274 18.7012 167.034 21.0686 168.555 22.8105C170.075 24.5523 172.086 25.4232 174.587 25.4232C177.114 25.4232 179.138 24.5523 180.659 22.8105C182.179 21.0686 182.927 18.7012 182.903 15.7084C182.903 12.6866 182.155 10.3179 180.659 8.60243C179.162 6.88696 177.138 6.01603 174.587 5.98964C172.088 5.98964 170.078 6.86057 168.555 8.60243C167.032 10.3443 166.272 12.7129 166.274 15.7084Z" fill="black"/>
<path d="M201.867 29.9916C198.128 29.9916 195.233 29.1602 193.184 27.4975C191.135 25.8348 190.097 23.4596 190.07 20.3717H195.213C195.243 22.3195 195.83 23.7156 196.976 24.5601C198.121 25.4047 199.804 25.8269 202.023 25.8269C203.825 25.8269 205.203 25.4878 206.157 24.8095C206.626 24.4791 207.002 24.0366 207.252 23.5231C207.503 23.0097 207.618 22.4418 207.589 21.8721C207.616 21.3896 207.517 20.9082 207.302 20.4746C207.087 20.0411 206.763 19.6702 206.361 19.3979C205.547 18.8357 204.071 18.3369 201.931 17.9015L199.611 17.4185C193.708 16.318 190.756 13.5534 190.756 9.12488C190.719 8.04023 190.946 6.96266 191.417 5.98343C191.888 5.00421 192.59 4.15216 193.463 3.49946C195.265 2.10598 197.766 1.40791 200.966 1.40527C204.6 1.40527 207.352 2.17327 209.223 3.70928C211.094 5.24528 212.08 7.39621 212.181 10.1621H207.114C207.01 8.60232 206.488 7.45032 205.547 6.70607C204.606 5.96182 203.105 5.59101 201.042 5.59365C199.447 5.59365 198.223 5.88792 197.37 6.47646C196.959 6.74831 196.626 7.1205 196.402 7.55727C196.178 7.99403 196.07 8.48069 196.09 8.97048C196.066 9.45774 196.162 9.94355 196.371 10.3853C196.579 10.827 196.894 11.2112 197.287 11.5041C198.084 12.094 199.471 12.5928 201.485 13.0045L203.877 13.4637C207.098 14.105 209.425 15.0591 210.858 16.3259C212.29 17.5927 213.005 19.3398 213.003 21.5673C213.003 24.2276 212.023 26.2941 210.064 27.7667C208.106 29.2394 205.373 29.981 201.867 29.9916Z" fill="black"/>
<path d="M8.90635 36.9432C8.72024 36.9438 8.53426 36.9333 8.34942 36.9118C7.54573 36.8256 6.77462 36.5491 6.10094 36.1055C5.42726 35.6619 4.8707 35.0642 4.47808 34.3625C3.99456 33.5022 3.714 32.5441 3.65753 31.5605C3.60105 30.5769 3.77015 29.5934 4.15207 28.6841C5.05765 26.6384 6.77372 25.1278 7.99172 24.1881C9.51001 23.0194 11.1733 22.0493 12.9407 21.3017L13.6335 21.0139C13.724 20.6722 13.8146 20.344 13.9006 20.0248C13.9414 19.8585 14.1632 18.9053 14.3896 17.9567C14.4621 17.6464 14.5255 17.3812 14.5798 17.1564L13.7829 17.2778C6.65599 18.3118 3.0518 18.0915 1.1048 17.9702C0.692766 17.9432 0.335064 17.9207 0.14942 17.9297L0 13.627C0.398454 13.627 0.833131 13.627 1.38553 13.672C3.16499 13.7844 6.47488 13.9867 13.158 13.0201C14.0308 12.8994 14.8968 12.7343 15.7525 12.5255C15.9563 11.7297 16.0332 11.4015 16.0332 11.397C16.3185 10.1786 16.6626 8.9557 17.0565 7.75976C18.2157 4.2394 18.9809 1.91498 21.3173 0.701061C22.619 0.0112618 24.1312 -0.177632 25.5644 0.170535C27.9054 0.808965 29.0147 3.07494 29.2547 4.81939C29.4156 6.03715 29.219 7.27514 28.6887 8.3847C27.122 11.6398 23.9072 13.627 21.6252 14.832C20.8915 15.2229 20.1356 15.5712 19.3612 15.875C19.2797 16.1748 19.1937 16.4985 19.1031 16.8462C19.0624 17.0125 18.8405 17.9567 18.6141 18.9053C18.5598 19.1436 18.51 19.3549 18.4647 19.5437C18.9537 19.4403 19.3703 19.3639 19.7597 19.2965C26.7191 18.0286 29.9927 18.4467 31.7541 18.676C31.982 18.7124 32.2117 18.7364 32.4423 18.748L32.5691 23.0326C32.1142 23.0311 31.6601 22.995 31.2107 22.9247C29.6893 22.7314 26.8504 22.3672 20.5521 23.5137C19.4226 23.7011 18.3052 23.9548 17.206 24.2735C16.7683 25.8891 16.2777 27.6575 15.7344 29.5788L15.7027 29.7002C15.3591 31.217 14.7639 32.6665 13.9414 33.9894C12.9407 35.464 11.1205 36.9432 8.90635 36.9432ZM12.1121 26.5215C11.6124 26.8291 11.1302 27.1638 10.6677 27.5241C9.30933 28.5717 8.49431 29.5069 8.11397 30.3746C7.99861 30.6683 7.94781 30.9831 7.96499 31.298C7.98217 31.6128 8.06693 31.9203 8.21358 32.2C8.26635 32.3227 8.35132 32.4292 8.45963 32.5083C8.56794 32.5874 8.69562 32.6361 8.82938 32.6496C9.25047 32.6945 9.93871 32.2 10.3734 31.584C10.9221 30.6429 11.3179 29.6218 11.5461 28.5582L11.5823 28.4323L12.1121 26.5215ZM24.1834 4.27987C23.8834 4.28681 23.5891 4.36219 23.3231 4.50017C22.576 4.88683 22.0689 6.34353 21.1633 9.09507C21.0184 9.54467 20.8826 9.96729 20.7558 10.4034C22.2953 9.50421 23.9887 8.20936 24.7902 6.53685C24.9641 6.18108 25.0286 5.78235 24.9758 5.39038C24.9646 5.18093 24.9097 4.97608 24.8146 4.78879C24.7195 4.60151 24.5863 4.43586 24.4234 4.30235C24.3448 4.28427 24.2641 4.27671 24.1834 4.27987Z" fill="#0061FB"/>
<path d="M30.2796 25.2091C29.4555 25.21 28.6496 24.9682 27.964 24.5142C27.2784 24.0603 26.7438 23.4146 26.4278 22.6588C26.1118 21.9031 26.0286 21.0713 26.1889 20.2686C26.3491 19.466 26.7455 18.7285 27.3279 18.1496C27.9103 17.5707 28.6525 17.1763 29.4607 17.0163C30.2689 16.8564 31.1067 16.938 31.8681 17.251C32.6295 17.5639 33.2804 18.094 33.7383 18.7744C34.1963 19.4547 34.4407 20.2546 34.4407 21.0728C34.4395 22.1687 34.0008 23.2194 33.2209 23.9947C32.4409 24.7701 31.3832 25.2068 30.2796 25.2091ZM30.2796 18.9462C29.856 18.9462 29.4419 19.071 29.0897 19.3046C28.7375 19.5383 28.463 19.8704 28.3009 20.259C28.1388 20.6476 28.0964 21.0752 28.179 21.4877C28.2617 21.9002 28.4656 22.2792 28.7652 22.5766C29.0647 22.874 29.4463 23.0765 29.8617 23.1586C30.2772 23.2406 30.7078 23.1985 31.0991 23.0376C31.4905 22.8766 31.825 22.604 32.0603 22.2543C32.2956 21.9046 32.4212 21.4934 32.4212 21.0728C32.4201 20.5092 32.194 19.969 31.7926 19.5704C31.3913 19.1719 30.8472 18.9474 30.2796 18.9462Z" fill="white"/>
<path d="M30.3882 24.206C32.0221 24.206 33.3466 22.8815 33.3466 21.2475C33.3466 19.6136 32.0221 18.2891 30.3882 18.2891C28.7542 18.2891 27.4297 19.6136 27.4297 21.2475C27.4297 22.8815 28.7542 24.206 30.3882 24.206Z" fill="#0061FB"/>
</svg>
