<svg width="338" height="59" viewBox="0 0 338 59" fill="none" xmlns="http://www.w3.org/2000/svg">
<path d="M68.1521 15.1349V12.7774C68.1521 9.73768 69.0103 7.35811 70.7266 5.63865C72.4429 3.9192 75.0347 3.05633 78.5019 3.05004C79.8291 3.04047 81.156 3.10186 82.4767 3.23393V9.12785H79.7844C77.1345 9.12785 75.8095 10.3852 75.8095 12.9V15.1491H82.2928V20.9581H75.8095V46.4953H68.1521V20.9676H63.2578V15.1349H68.1521ZM86.1498 46.4953V3.21978H93.8591V46.4953H86.1498Z" fill="white"/>
<path d="M126.483 42.7281C123.541 45.7206 119.665 47.2185 114.855 47.2216C110.046 47.2248 106.17 45.7269 103.228 42.7281C100.248 39.7607 98.7578 35.7921 98.7578 30.8224C98.7578 25.8526 100.248 21.8856 103.228 18.9214C106.17 15.9162 110.046 14.4168 114.855 14.4231C119.665 14.4294 123.541 15.9084 126.483 18.8601C129.431 21.8212 130.904 25.8133 130.901 30.8365C130.898 35.756 129.425 39.7198 126.483 42.7281ZM108.815 38.2864C109.586 39.1148 110.519 39.7756 111.556 40.2273C112.593 40.6791 113.712 40.9123 114.844 40.9123C115.975 40.9123 117.094 40.6791 118.131 40.2273C119.168 39.7756 120.101 39.1148 120.872 38.2864C122.321 36.523 123.045 34.0412 123.045 30.8412C123.045 27.6412 122.326 25.1501 120.886 23.3677C120.115 22.54 119.182 21.8798 118.145 21.4284C117.108 20.977 115.989 20.7441 114.858 20.7441C113.727 20.7441 112.608 20.977 111.57 21.4284C110.533 21.8798 109.6 22.54 108.829 23.3677C107.377 25.1123 106.651 27.6035 106.651 30.8412C106.651 34.079 107.377 36.5607 108.829 38.2864H108.815Z" fill="white"/>
<path d="M147.786 47.344C138.582 47.344 133.768 43.7384 133.344 36.5274H140.888C141.089 38.4638 141.718 39.8422 142.774 40.6626C143.854 41.4689 145.565 41.8744 147.885 41.8744C152.05 41.8744 154.133 40.617 154.133 38.1023C154.154 37.5869 154.04 37.075 153.803 36.617C153.561 36.1644 153.207 35.7812 152.775 35.5042C151.879 34.8771 150.248 34.3867 147.937 33.986L144.33 33.3636C137.433 32.2256 133.983 29.0649 133.98 23.8814C133.931 22.5241 134.222 21.176 134.826 19.9597C135.431 18.7434 136.33 17.6975 137.441 16.9172C139.726 15.2417 142.95 14.4056 147.112 14.4087C156.13 14.4087 160.783 17.9592 161.069 25.0602H153.784C153.699 23.1741 153.114 21.8728 152.011 21.0759C150.908 20.279 149.276 19.8924 147.112 19.8924C143.437 19.8924 141.602 21.1073 141.605 23.5372C141.587 24.0126 141.688 24.485 141.898 24.9116C142.109 25.3381 142.423 25.7052 142.812 25.9797C144.043 26.7204 145.42 27.1868 146.848 27.347L150.827 27.9742C154.666 28.6626 157.451 29.7628 159.183 31.2748C160.915 32.7867 161.781 34.8755 161.781 37.5412C161.781 40.7066 160.558 43.1365 158.112 44.8308C155.667 46.5251 152.225 47.3628 147.786 47.344Z" fill="white"/>
<path d="M178.377 47.1792C169.154 47.1792 164.338 43.5643 163.93 36.3344H171.474C171.675 38.277 172.316 39.6554 173.398 40.4696C174.479 41.2837 176.183 41.6892 178.509 41.6861C182.671 41.6861 184.75 40.4287 184.747 37.914C184.77 37.4005 184.657 36.8901 184.422 36.4334C184.186 35.9743 183.835 35.5843 183.403 35.3018C182.507 34.6794 180.881 34.189 178.57 33.7882L174.935 33.1941C168.048 32.0625 164.601 28.9033 164.595 23.7167C164.542 22.3617 164.828 21.0151 165.426 19.7983C166.025 18.5816 166.917 17.5332 168.022 16.7477C170.305 15.0786 173.528 14.2424 177.693 14.2393C186.705 14.2393 191.358 17.7898 191.65 24.8908H184.365C184.28 23.0047 183.696 21.7033 182.592 20.9065C181.489 20.1096 179.857 19.723 177.693 19.723C174.019 19.723 172.183 20.9379 172.186 23.3678C172.166 23.8476 172.268 24.3246 172.483 24.754C172.699 25.1889 173.024 25.5608 173.426 25.8338C174.659 26.571 176.035 27.0356 177.462 27.1965L181.437 27.8189C185.275 28.5104 188.06 29.6106 189.792 31.1195C191.524 32.6283 192.387 34.7124 192.381 37.3717C192.381 40.5403 191.156 42.9717 188.708 44.6661C186.259 46.3604 182.815 47.1981 178.377 47.1792Z" fill="white"/>
<path d="M205.006 46.4955H197.297V3.21997H205.006V46.4955Z" fill="white"/>
<path d="M228.82 23.0376L231.395 15.135H239.472L227.278 49.0369C225.967 52.6015 224.334 55.0534 222.379 56.3925C220.424 57.7316 217.532 58.4231 213.703 58.4671C212.575 58.4679 211.447 58.4002 210.327 58.2644V52.262H213.26C213.947 52.3292 214.64 52.2471 215.292 52.0215C215.944 51.7962 216.537 51.4308 217.032 50.9512C217.522 50.4738 217.903 49.8955 218.147 49.2563C218.391 48.6171 218.494 47.9325 218.447 47.2498C218.447 45.7504 217.958 43.6459 216.98 40.9363L207.805 15.135H216.127L218.701 22.9716C220.493 28.5637 222.165 34.3995 223.718 40.4789C224.96 35.9021 226.661 30.0883 228.82 23.0376Z" fill="white"/>
<path d="M276.314 47.4666C269.791 47.4666 264.534 45.3998 260.541 41.2662C256.549 37.1326 254.548 31.663 254.539 24.8575C254.539 18.0928 256.54 12.6233 260.541 8.44881C264.543 4.27434 269.8 2.20753 276.314 2.2484C282.849 2.2484 288.108 4.3152 292.09 8.44881C296.073 12.5824 298.054 18.052 298.032 24.8575C298.032 31.7102 296.053 37.1797 292.095 41.2662C288.138 45.3526 282.877 47.4194 276.314 47.4666ZM263.158 24.8575C263.158 29.5978 264.362 33.3447 266.77 36.0984C269.178 38.852 272.359 40.2304 276.314 40.2336C280.318 40.2336 283.523 38.8552 285.928 36.0984C288.332 33.3416 289.516 29.5946 289.478 24.8575C289.478 20.0763 288.295 16.3278 285.928 13.6119C283.561 10.896 280.356 9.51757 276.314 9.47671C272.362 9.47671 269.181 10.8551 266.77 13.6119C264.359 16.3687 263.155 20.1172 263.158 24.8575Z" fill="white"/>
<path d="M319.481 47.4669C313.565 47.4669 308.985 46.1498 305.741 43.5156C302.497 40.8814 300.86 37.1234 300.828 32.2417H308.971C309.018 35.3222 309.947 37.5321 311.758 38.8712C313.568 40.2103 316.231 40.8783 319.745 40.8751C322.596 40.8751 324.778 40.3376 326.29 39.2625C327.021 38.745 327.611 38.0529 328.006 37.2492C328.401 36.4375 328.583 35.5384 328.534 34.637C328.575 33.8711 328.413 33.1081 328.063 32.4256C327.722 31.7389 327.208 31.1524 326.573 30.7234C325.284 29.8307 322.948 29.0448 319.566 28.3658L315.917 27.5643C306.571 25.826 301.9 21.4519 301.903 14.442C301.843 12.724 302.2 11.0169 302.945 9.46757C303.695 7.91805 304.806 6.57111 306.185 5.53986C309.036 3.33946 312.995 2.23926 318.062 2.23926C323.811 2.23926 328.167 3.45419 331.128 5.88406C334.089 8.31393 335.649 11.7183 335.81 16.0971H327.794C327.631 13.6263 326.804 11.8031 325.314 10.6275C323.824 9.45185 321.447 8.86403 318.185 8.86403C315.67 8.86403 313.733 9.33554 312.375 10.2786C311.725 10.707 311.197 11.2967 310.843 11.9902C310.485 12.679 310.315 13.4497 310.348 14.2251C310.308 14.9968 310.459 15.7665 310.788 16.4657C311.117 17.1649 311.614 17.772 312.234 18.233C313.493 19.176 315.69 19.9588 318.878 20.5906L322.65 21.3167C327.748 22.332 331.431 23.8425 333.697 25.848C335.964 27.8535 337.095 30.6181 337.092 34.1419C337.092 38.3509 335.541 41.6217 332.438 43.9541C329.336 46.2865 325.017 47.4574 319.481 47.4669Z" fill="white"/>
<path d="M30.2335 26.6635C30.3796 26.1118 30.5164 25.5979 30.6437 25.1264C31.8689 24.6457 33.0654 24.0946 34.2272 23.4761C37.839 21.59 42.9266 18.4214 45.4068 13.2725C46.2484 11.5134 46.5597 9.54736 46.3027 7.61433C45.9207 4.8654 44.1667 1.2819 40.4606 0.268141C38.193 -0.280878 35.8029 0.0193559 33.7415 1.11215C30.0402 3.03121 28.8284 6.70902 26.9942 12.2823C26.3718 14.1684 25.8295 16.111 25.3769 18.0395C25.3769 18.0395 25.2543 18.5629 24.9337 19.8218C23.5795 20.1552 22.2086 20.4165 20.8268 20.6045C10.2507 22.1605 5.01219 21.8163 2.19254 21.6372C1.32024 21.5664 0.631829 21.5664 0 21.5664L0.240472 28.3751C0.532811 28.3751 1.09863 28.3751 1.74932 28.4411C4.83302 28.6344 10.5336 28.9833 21.817 27.3472L23.0759 27.1539L22.7741 28.4175C22.4158 29.9217 22.0669 31.4305 22.0008 31.6945L21.5765 33.26L20.4826 33.7315C17.6877 34.914 15.0557 36.4495 12.6507 38.3005C10.7222 39.7669 8.01574 42.1574 6.5729 45.3967C5.96662 46.834 5.69648 48.3906 5.7831 49.9481C5.86972 51.5056 6.3108 53.0227 7.07271 54.3838C7.69921 55.496 8.5823 56.4426 9.64848 57.1446C10.7147 57.8467 11.9331 58.2839 13.2024 58.42C13.4952 58.4522 13.7896 58.468 14.0841 58.4671C17.5875 58.4671 20.4684 56.1095 22.0527 53.7944C23.3538 51.7024 24.2957 49.4075 24.8394 47.0046L24.8912 46.8113C25.7494 43.7684 26.5258 40.9708 27.2205 38.4183C28.9661 37.9112 30.7406 37.5097 32.5345 37.216C35.6302 36.6275 38.759 36.2291 41.9034 36.023C41.8755 35.971 41.8503 35.9175 41.828 35.8627C41.366 34.765 41.2153 33.5611 41.3925 32.3834C41.5696 31.2056 42.0678 30.0994 42.8323 29.1861C38.952 29.3526 35.0893 29.8049 31.2755 30.5393C30.6578 30.6478 29.9977 30.7657 29.2244 30.9307C29.2952 30.6336 29.3753 30.2989 29.4602 29.9217C29.8185 28.4175 30.1769 26.9228 30.2335 26.6635ZM33.4964 14.4041C34.9109 10.0473 35.7313 7.74164 36.9148 7.13338C37.3356 6.91235 37.8023 6.79286 38.2775 6.78446C38.4041 6.77885 38.531 6.78994 38.6547 6.81747C38.9122 7.02942 39.1226 7.2928 39.2724 7.59075C39.4238 7.88351 39.5122 8.20477 39.5317 8.53378C39.614 9.15342 39.5106 9.78354 39.2347 10.3444C37.9663 12.9943 35.2881 15.0595 32.8504 16.4741C33.0531 15.7762 33.2653 15.0878 33.4775 14.3947L33.4964 14.4041ZM18.3325 45.0007L18.2759 45.1987C17.9127 46.8804 17.2857 48.4941 16.4181 49.9799C15.7297 50.9559 14.6405 51.7386 13.9757 51.6679C13.7644 51.6478 13.5625 51.5712 13.391 51.4463C13.2232 51.3243 13.0886 51.1622 12.9996 50.9748C12.771 50.5361 12.6377 50.054 12.6083 49.5602C12.5804 49.0617 12.6608 48.563 12.844 48.0985C13.4429 46.7264 14.7301 45.2694 16.8849 43.5908C17.6158 43.0057 18.3793 42.4626 19.1718 41.9641L18.3325 45.0007Z" fill="#0061FB"/>
<path d="M52.7861 33.6276C52.7861 34.4871 52.5495 35.3299 52.1023 36.0638C51.6551 36.7978 51.0145 37.3944 50.2507 37.7885C49.4869 38.1825 48.6294 38.3587 47.7722 38.2978C46.9149 38.2369 46.0909 37.9412 45.3905 37.4431C44.6901 36.9451 44.1403 36.2638 43.8014 35.474C43.4624 34.6842 43.3474 33.8164 43.4689 32.9656C43.5904 32.1148 43.9437 31.3138 44.4901 30.6505C45.0366 29.9871 45.7551 29.487 46.5669 29.2048C47.2058 28.9828 47.8853 28.9019 48.5585 28.9678C49.2317 29.0338 49.8826 29.2449 50.4663 29.5868C50.7962 29.7766 51.1005 30.008 51.3716 30.2752C51.82 30.7106 52.1763 31.2318 52.4193 31.8077C52.6623 32.3837 52.7871 33.0026 52.7861 33.6276Z" fill="#0061FB"/>
</svg>
