<svg width="441" height="78" viewBox="0 0 441 78" fill="none" xmlns="http://www.w3.org/2000/svg">
<g clip-path="url(#clip0_4218_37553)">
<path d="M81.5321 20.1412V16.9734C81.5321 12.9168 82.6769 9.74344 84.9665 7.45326C87.2561 5.16308 90.7129 4.01241 95.337 4.00127C97.1078 3.9887 98.878 4.06961 100.64 4.24366V12.1089H97.0458C93.5104 12.1089 91.7427 13.7805 91.7427 17.1239V20.1245H100.396V27.9061H91.7427V61.9747H81.5321V27.9228H75V20.1412H81.5321ZM105.539 61.9747V4.24366H115.826V61.9747H105.539Z" fill="white"/>
<path d="M160.042 57.0032C156.114 60.9985 150.942 62.9961 144.528 62.9961C138.114 62.9961 132.943 60.9985 129.014 57.0032C125.041 53.0469 123.055 47.7533 123.055 41.1224C123.055 34.4914 125.041 29.1978 129.014 25.2415C132.943 21.2351 138.114 19.2347 144.528 19.2402C150.942 19.2458 156.114 21.2184 160.042 25.1579C163.97 29.1031 165.934 34.4273 165.934 41.1307C165.929 47.7004 163.964 52.9912 160.042 57.0032ZM136.472 51.0772C137.497 52.1801 138.741 53.0603 140.125 53.6624C141.509 54.2644 143.004 54.5752 144.515 54.5752C146.027 54.5752 147.522 54.2644 148.906 53.6624C150.29 53.0603 151.534 52.1801 152.559 51.0772C154.489 48.7257 155.454 45.4158 155.454 41.1474C155.454 36.8791 154.495 33.5553 152.575 31.176C151.551 30.073 150.307 29.1928 148.923 28.5907C147.538 27.9887 146.044 27.6779 144.532 27.6779C143.021 27.6779 141.526 27.9887 140.142 28.5907C138.758 29.1928 137.514 30.073 136.489 31.176C134.553 33.4996 133.585 36.8234 133.585 41.1474C133.585 45.4715 134.553 48.7814 136.489 51.0772H136.472Z" fill="white"/>
<path d="M187.76 63.1107C175.476 63.1107 169.053 58.2991 168.492 48.6758H178.534C178.804 51.2669 179.646 53.1057 181.06 54.1923C182.499 55.2706 184.78 55.8138 187.878 55.8138C193.434 55.8138 196.211 54.1422 196.211 50.7988C196.24 50.1128 196.09 49.431 195.774 48.8202C195.458 48.2093 194.988 47.6901 194.41 47.3134C193.215 46.4776 191.043 45.8256 187.962 45.2907L183.147 44.4549C173.944 42.9448 169.342 38.7294 169.342 31.8087C169.275 30.0012 169.661 28.2053 170.466 26.5829C171.272 24.9604 172.471 23.5622 173.955 22.5142C177.008 20.2853 181.309 19.1709 186.859 19.1709C198.891 19.1709 205.098 23.9073 205.479 33.3801H195.757C195.647 30.8726 194.865 29.1257 193.392 28.0642C191.918 27.0027 189.747 26.4844 186.859 26.4844C181.96 26.4844 179.511 28.106 179.511 31.349C179.486 31.982 179.62 32.6112 179.901 33.1801C180.182 33.749 180.6 34.2399 181.119 34.6087C182.761 35.5943 184.599 36.2158 186.506 36.4309L191.817 37.2667C196.935 38.1861 200.65 39.646 202.962 41.6465C205.274 43.6469 206.43 46.433 206.43 50.0048C206.43 54.2285 204.797 57.4716 201.531 59.7339C198.265 61.9962 193.675 63.1218 187.76 63.1107Z" fill="white"/>
<path d="M229.276 62.9398C216.97 62.9398 210.544 58.1282 210 48.5049H220.051C220.32 51.096 221.176 52.9348 222.618 54.0214C224.06 55.108 226.333 55.6485 229.436 55.6429C234.992 55.6429 237.767 53.9713 237.761 50.6279C237.791 49.9427 237.642 49.2614 237.327 48.6506C237.013 48.0398 236.545 47.5202 235.968 47.1425C234.773 46.3067 232.601 45.6547 229.521 45.1198L224.697 44.284C215.505 42.7739 210.906 38.5585 210.901 31.6378C210.828 29.834 211.208 28.0406 212.006 26.4184C212.804 24.7962 213.995 23.396 215.471 22.3433C218.519 20.1144 222.82 19 228.376 19C240.396 19 246.603 23.7364 246.996 33.2092H237.273C237.164 30.7017 236.381 28.9548 234.908 27.8933C233.435 26.8318 231.263 26.3135 228.376 26.3135C223.477 26.3135 221.027 27.9351 221.027 31.1781C221.001 31.8175 221.137 32.4532 221.422 33.0271C221.708 33.6009 222.133 34.0946 222.66 34.4629C224.303 35.4484 226.14 36.07 228.047 36.285L233.359 37.1209C238.471 38.0403 242.186 39.5002 244.504 41.5006C246.822 43.5011 247.978 46.2872 247.972 49.859C247.972 54.0827 246.339 57.3258 243.073 59.5881C239.807 61.8504 235.208 62.9676 229.276 62.9398Z" fill="white"/>
<path d="M264.802 62.0269H254.516V4.2959H264.802V62.0269Z" fill="white"/>
<path d="M296.563 30.7332L299.997 20.1934H310.772L294.526 65.4287C292.78 70.1818 290.603 73.4527 287.993 75.2414C285.384 77.0301 281.517 77.9495 276.394 77.9996C274.889 78.001 273.385 77.9116 271.89 77.7322V69.7249H275.805C276.721 69.8129 277.645 69.7021 278.513 69.4002C279.382 69.0982 280.174 68.6124 280.834 67.9763C281.495 67.3403 282.008 66.5692 282.339 65.7165C282.67 64.8638 282.81 63.9499 282.749 63.0382C282.749 61.0378 282.095 58.2294 280.788 54.613L268.523 20.1934H279.626L283.061 30.6496C285.451 38.1053 287.682 45.8897 289.753 54.0028C291.408 47.8957 293.678 40.1391 296.563 30.7332Z" fill="white"/>
<path d="M359.924 63.3228C351.22 63.3228 344.206 60.5673 338.88 55.0564C333.555 49.5455 330.886 42.2486 330.875 33.1659C330.875 24.1389 333.543 16.8421 338.88 11.2754C344.217 5.70877 351.232 2.95052 359.924 3.00067C368.639 3.00067 375.654 5.75892 380.968 11.2754C386.283 16.7919 388.926 24.0888 388.898 33.1659C388.898 42.3044 386.257 49.6012 380.977 55.0564C375.696 60.5116 368.679 63.2671 359.924 63.3228ZM342.373 33.1659C342.373 39.4848 343.978 44.4831 347.188 48.1608C350.398 51.8384 354.644 53.6773 359.924 53.6773C365.261 53.6773 369.534 51.8384 372.744 48.1608C375.954 44.4831 377.534 39.4848 377.483 33.1659C377.483 26.7857 375.904 21.7846 372.744 18.1627C369.585 14.5407 365.312 12.7019 359.924 12.6462C354.649 12.6462 350.404 14.485 347.188 18.1627C343.973 21.8404 342.368 26.8414 342.373 33.1659Z" fill="white"/>
<path d="M417.517 63.3223C409.621 63.3223 403.51 61.5671 399.184 58.0566C394.857 54.5461 392.665 49.5311 392.609 43.0116H403.468C403.53 47.1239 404.77 50.0716 407.189 51.8547C409.607 53.6378 413.16 54.5294 417.845 54.5294C421.65 54.5294 424.56 53.8133 426.575 52.3813C427.563 51.6836 428.359 50.7494 428.887 49.6653C429.415 48.5812 429.659 47.3822 429.596 46.1794C429.655 45.1606 429.446 44.1442 428.992 43.2288C428.538 42.3135 427.853 41.5303 427.004 40.9554C425.287 39.7686 422.169 38.7154 417.652 37.796L412.753 36.7763C400.289 34.4527 394.057 28.6157 394.057 19.2656C393.979 16.9755 394.457 14.7004 395.452 12.6329C396.447 10.5654 397.929 8.76643 399.773 7.38836C403.578 4.44622 408.858 2.97237 415.615 2.9668C423.286 2.9668 429.097 4.58831 433.048 7.83135C436.998 11.0744 439.08 15.6157 439.294 21.4554H428.595C428.376 18.1623 427.273 15.73 425.287 14.1586C423.3 12.5872 420.129 11.8043 415.775 11.8099C412.408 11.8099 409.823 12.4312 408.022 13.6738C407.155 14.2478 406.451 15.0336 405.977 15.9558C405.504 16.878 405.278 17.9055 405.32 18.9396C405.268 19.9683 405.471 20.9941 405.911 21.9267C406.352 22.8594 407.016 23.6705 407.845 24.2889C409.529 25.5343 412.458 26.5875 416.709 27.4567L421.76 28.4263C428.561 29.7803 433.474 31.7947 436.499 34.4694C439.524 37.144 441.033 40.8329 441.028 45.5358C441.028 51.1526 438.96 55.5157 434.824 58.625C430.688 61.7343 424.919 63.3001 417.517 63.3223Z" fill="white"/>
<path d="M16.5575 68.6896C16.2115 68.6907 15.8658 68.6712 15.5221 68.6311C14.028 68.471 12.5945 67.957 11.342 67.1323C10.0896 66.3076 9.05496 65.1963 8.32504 63.892C7.42615 62.2926 6.90456 60.5115 6.79958 58.6829C6.6946 56.8542 7.00896 55.0258 7.71897 53.3354C9.4025 49.5323 12.5928 46.7239 14.8571 44.977C17.6797 42.8043 20.7719 41.0008 24.0576 39.611L25.3455 39.076C25.5139 38.4408 25.6822 37.8307 25.8421 37.2372C25.9179 36.928 26.3304 35.156 26.7512 33.3924C26.8859 32.8157 27.0038 32.3225 27.1048 31.9046L25.6233 32.1303C12.3739 34.0527 5.67349 33.6431 2.0539 33.4175C1.2879 33.3673 0.622905 33.3255 0.277782 33.3422L0 25.3433C0.740752 25.3433 1.54885 25.3433 2.5758 25.4269C5.88393 25.6358 12.0372 26.012 24.4617 24.2149C26.0842 23.9906 27.6941 23.6837 29.285 23.2955C29.6638 21.8161 29.8069 21.2059 29.8069 21.1976C30.3372 18.9325 30.9769 16.659 31.7092 14.4357C33.8642 7.8911 35.2867 3.56984 39.6302 1.31308C42.0502 0.0307021 44.8615 -0.320464 47.526 0.3268C51.8779 1.51368 53.9402 5.72629 54.3864 8.96932C54.6855 11.2332 54.3201 13.5347 53.3341 15.5975C50.4216 21.6489 44.4451 25.3433 40.2026 27.5833C38.8387 28.3101 37.4334 28.9576 35.9938 29.5225C35.8423 30.0797 35.6824 30.6815 35.514 31.3279C35.4382 31.6371 35.0258 33.3924 34.6049 35.156C34.5039 35.599 34.4113 35.9918 34.3271 36.3429C35.2362 36.1506 36.0107 36.0085 36.7346 35.8832C49.6725 33.5261 55.7584 34.3034 59.0329 34.7297C59.4566 34.7974 59.8837 34.842 60.3124 34.8634L60.5481 42.8289C59.7024 42.826 58.8582 42.759 58.0228 42.6283C55.1944 42.2689 49.9166 41.5919 38.2077 43.7233C36.1078 44.0717 34.0306 44.5434 31.987 45.1358C31.1733 48.1393 30.2614 51.4269 29.2513 54.9987L29.1924 55.2244C28.5536 58.0442 27.447 60.7389 25.9179 63.1982C24.0576 65.9397 20.6737 68.6896 16.5575 68.6896ZM22.5172 49.315C21.5882 49.8867 20.6918 50.509 19.832 51.1789C17.3067 53.1264 15.7915 54.8649 15.0844 56.4781C14.8699 57.0242 14.7755 57.6095 14.8074 58.1947C14.8394 58.78 14.997 59.3517 15.2696 59.8716C15.3677 60.0998 15.5257 60.2978 15.727 60.4448C15.9284 60.5918 16.1657 60.6825 16.4144 60.7074C17.1972 60.791 18.4767 59.8716 19.2848 58.7265C20.3049 56.9769 21.0406 55.0786 21.465 53.1013L21.5323 52.8673L22.5172 49.315ZM44.9586 7.96632C44.4009 7.97922 43.8537 8.11936 43.3592 8.37588C41.9703 9.0947 41.0276 11.8028 39.344 16.9181C39.0747 17.7539 38.8221 18.5396 38.5864 19.3504C41.4484 17.6787 44.5966 15.2715 46.0866 12.1622C46.4098 11.5008 46.5299 10.7595 46.4317 10.0308C46.4108 9.64146 46.3088 9.26063 46.132 8.91245C45.9552 8.56427 45.7076 8.25632 45.4047 8.00811C45.2586 7.9745 45.1085 7.96045 44.9586 7.96632Z" fill="white"/>
<path d="M56.2917 46.8657C54.7597 46.8673 53.2616 46.4177 51.987 45.5738C50.7123 44.7298 49.7184 43.5295 49.131 42.1245C48.5435 40.7195 48.389 39.1731 48.6868 37.6809C48.9847 36.1887 49.7216 34.8178 50.8043 33.7415C51.887 32.6653 53.2669 31.9321 54.7694 31.6347C56.2718 31.3373 57.8294 31.4891 59.2449 32.0709C60.6605 32.6526 61.8705 33.6382 62.7218 34.903C63.5731 36.1677 64.0275 37.6548 64.0275 39.176C64.0253 41.2133 63.2098 43.1667 61.7598 44.608C60.3098 46.0494 58.3435 46.8612 56.2917 46.8657ZM56.2917 35.2225C55.5042 35.2225 54.7344 35.4544 54.0797 35.8888C53.4249 36.3232 52.9146 36.9407 52.6132 37.6631C52.3119 38.3855 52.233 39.1804 52.3867 39.9473C52.5403 40.7142 52.9195 41.4186 53.4763 41.9715C54.0332 42.5244 54.7426 42.901 55.5149 43.0535C56.2873 43.2061 57.0878 43.1278 57.8154 42.8286C58.5429 42.5293 59.1647 42.0226 59.6022 41.3724C60.0397 40.7223 60.2733 39.9579 60.2733 39.176C60.271 38.1281 59.8508 37.1238 59.1046 36.3829C58.3584 35.6419 57.347 35.2247 56.2917 35.2225Z" fill="#0061FB"/>
<path d="M56.5 45C59.5376 45 62 42.5376 62 39.5C62 36.4624 59.5376 34 56.5 34C53.4624 34 51 36.4624 51 39.5C51 42.5376 53.4624 45 56.5 45Z" fill="white"/>
</g>
<defs>
<clipPath id="clip0_4218_37553">
<rect width="441" height="78" fill="white"/>
</clipPath>
</defs>
</svg>
