<svg width="1920" height="1080" viewBox="0 0 1920 1080" fill="none" xmlns="http://www.w3.org/2000/svg">
<path d="M499.031 1786.33C488.127 1786.36 477.231 1785.75 466.401 1784.49C419.314 1779.47 374.135 1763.37 334.665 1737.52C295.195 1711.68 262.587 1676.85 239.584 1635.97C211.255 1585.85 194.817 1530.03 191.509 1472.73C188.2 1415.42 198.107 1358.12 220.483 1305.15C273.54 1185.96 374.082 1097.95 445.444 1043.21C534.398 975.117 631.848 918.599 735.398 875.044L775.987 858.28C781.292 838.372 786.598 819.251 791.638 800.653C794.026 790.962 807.025 735.431 820.289 680.162C824.533 662.088 828.247 646.634 831.431 633.537L784.741 640.609C367.185 700.855 156.02 688.02 41.9479 680.948C17.8071 679.376 -3.15029 678.066 -14.0269 678.59L-22.7812 427.916C0.563673 427.916 26.0309 427.916 58.3954 430.535C162.652 437.083 356.574 448.871 748.132 392.554C799.267 385.523 850.003 375.906 900.139 363.741C912.077 317.378 916.587 298.256 916.587 297.994C933.299 227.009 953.461 155.762 976.541 86.0866C1044.45 -119.011 1089.29 -254.433 1226.17 -325.156C1302.44 -365.344 1391.04 -376.349 1475.01 -356.065C1612.16 -318.869 1677.15 -186.853 1691.21 -85.2208C1700.64 -14.2737 1689.13 57.8521 1658.05 122.496C1566.27 312.139 1377.91 427.916 1244.21 498.115C1201.23 520.891 1156.94 541.181 1111.57 558.885C1106.79 576.347 1101.75 595.207 1096.45 615.463C1094.06 625.155 1081.06 680.162 1067.8 735.431C1064.61 749.313 1061.7 761.625 1059.04 772.626C1087.69 766.601 1112.1 762.148 1134.91 758.219C1542.66 684.353 1734.45 708.713 1837.65 722.072C1851 724.193 1864.46 725.592 1877.97 726.263L1885.4 975.89C1858.75 975.799 1832.14 973.697 1805.82 969.603C1716.68 958.34 1550.35 937.123 1181.34 1003.92C1115.16 1014.84 1049.7 1029.62 985.295 1048.18C959.651 1142.31 930.912 1245.34 899.078 1357.27L897.221 1364.34C877.09 1452.71 842.216 1537.16 794.026 1614.23C735.398 1700.15 628.754 1786.33 499.031 1786.33ZM686.851 1179.15C657.575 1197.07 629.323 1216.57 602.226 1237.57C522.641 1298.6 474.89 1353.08 452.606 1403.63C445.847 1420.75 442.871 1439.09 443.878 1457.43C444.884 1475.77 449.85 1493.69 458.443 1509.98C461.534 1517.13 466.512 1523.34 472.858 1527.94C479.204 1532.55 486.684 1535.39 494.521 1536.17C519.192 1538.79 559.515 1509.98 584.983 1474.1C617.13 1419.27 640.318 1359.77 653.691 1297.81L655.813 1290.48L686.851 1179.15ZM1394.1 -116.653C1376.52 -116.249 1359.27 -111.857 1343.69 -103.818C1299.92 -81.2917 1270.21 3.57617 1217.15 163.882C1208.66 190.076 1200.7 214.698 1193.28 240.106C1283.47 187.719 1382.69 112.28 1429.64 14.8395C1439.83 -5.88818 1443.61 -29.1184 1440.52 -51.9547C1439.86 -64.157 1436.65 -76.0917 1431.08 -87.0031C1425.51 -97.9145 1417.7 -107.565 1408.16 -115.344C1403.55 -116.397 1398.82 -116.837 1394.1 -116.653Z" fill="#0061FB"/>
<path d="M1751.2 1102.38C1702.92 1102.43 1655.71 1088.34 1615.54 1061.9C1575.37 1035.45 1544.04 997.829 1525.53 953.8C1507.02 909.77 1502.15 861.309 1511.53 814.545C1520.92 767.782 1544.14 724.818 1578.27 691.09C1612.39 657.362 1655.87 634.384 1703.22 625.065C1750.57 615.745 1799.66 620.502 1844.27 638.734C1888.88 656.965 1927.02 687.853 1953.85 727.488C1980.68 767.123 1995 813.725 1995 861.398C1994.93 925.244 1969.23 986.459 1923.53 1031.63C1877.83 1076.8 1815.86 1102.24 1751.2 1102.38ZM1751.2 737.501C1726.38 737.501 1702.12 744.768 1681.49 758.382C1660.85 771.996 1644.77 791.346 1635.27 813.985C1625.78 836.624 1623.29 861.535 1628.13 885.569C1632.97 909.603 1644.93 931.679 1662.47 949.006C1680.02 966.333 1702.38 978.133 1726.72 982.914C1751.06 987.694 1776.29 985.241 1799.22 975.864C1822.15 966.486 1841.75 950.606 1855.53 930.231C1869.32 909.857 1876.68 885.902 1876.68 861.398C1876.61 828.56 1863.37 797.086 1839.85 773.866C1816.33 750.646 1784.46 737.57 1751.2 737.501Z" fill="#171952"/>
<path d="M1757.72 1028.46C1853.45 1028.46 1931.06 951.293 1931.06 856.1C1931.06 760.907 1853.45 683.738 1757.72 683.738C1661.99 683.738 1584.39 760.907 1584.39 856.1C1584.39 951.293 1661.99 1028.46 1757.72 1028.46Z" fill="#0061FB"/>
</svg>
