<svg width="90" height="100" viewBox="0 0 90 100" fill="none" xmlns="http://www.w3.org/2000/svg">
<path d="M35.7451 3.9248C41.4715 0.616305 48.5285 0.616307 54.2549 3.9248L80.2549 18.9473C85.9759 22.2527 89.5 28.3585 89.5 34.9658V65.0342C89.5 71.6415 85.9759 77.7473 80.2549 81.0527L54.2549 96.0752C48.5285 99.3837 41.4715 99.3837 35.7451 96.0752L9.74512 81.0527C4.02409 77.7473 0.5 71.6415 0.5 65.0342V34.9658C0.5 28.3585 4.02409 22.2527 9.74512 18.9473L35.7451 3.9248ZM45 35.3184C36.8763 35.3184 30.2891 41.8903 30.2891 50C30.2891 58.1097 36.8763 64.6816 45 64.6816C53.1237 64.6816 59.7109 58.1097 59.7109 50C59.7109 41.8903 53.1237 35.3184 45 35.3184Z" fill="white" fill-opacity="0.26" stroke="white"/>
</svg>
